<?xml version="1.0" encoding="iso-8859-1"?>
<!-- Generator: Adobe Illustrator 19.0.0, SVG Export Plug-In . SVG Version: 6.00 Build 0)  -->
<svg version="1.1" id="Capa_1" xmlns="http://www.w3.org/2000/svg" xmlns:xlink="http://www.w3.org/1999/xlink" x="0px" y="0px"
	 viewBox="0 0 415.998 415.998" style="enable-background:new 0 0 415.998 415.998;" xml:space="preserve">
<path style="fill:#756556;" d="M335.999,415.998H80c-17.673,0-32-14.327-32-32V95.999c0-17.673,14.327-32,32-32h255.999
	c17.673,0,32,14.327,32,32v287.999C367.999,401.671,353.672,415.998,335.999,415.998z"/>
<path style="fill:#F4F5F5;" d="M335.999,95.999H80V315.58c0,2.829,1.124,5.542,3.124,7.542l57.751,57.751
	c2,2,4.714,3.124,7.542,3.124h187.581L335.999,95.999L335.999,95.999z"/>
<path style="fill:#CDD7DE;" d="M269.291,49.864c-7.367-2.118-13.038-7.789-15.156-15.156C248.371,14.664,229.898,0,208,0
	c-21.898,0-40.37,14.663-46.135,34.706c-2.122,7.376-7.806,13.039-15.181,15.165c-19.914,5.738-34.513,24.024-34.682,45.746v32.382
	H304v-32C303.999,74.102,289.335,55.628,269.291,49.864z M208.205,64c-8.837,0-16-7.164-16-16c0-8.837,7.163-16,16-16
	c8.837,0,16,7.163,16,16C224.205,56.836,217.042,64,208.205,64z"/>
<path style="fill:#C0CCD5;" d="M112.002,95.999v32H304v-32H112.002z"/>
<rect x="112.002" y="125.6" style="fill:#B5BFC8;" width="192" height="2.4"/>
<path style="fill:#E6E6E5;" d="M144,341.332c0-11.782-9.551-21.334-21.334-21.334H80.991c0.524,1.146,1.224,2.216,2.133,3.124
	l57.751,57.751c0.909,0.909,1.978,1.609,3.124,2.133L144,341.332L144,341.332z"/>
<polygon style="fill:#CB5741;" points="162.744,303.998 208.088,258.654 253.35,303.901 275.891,281.361 230.628,236.114 
	275.883,190.843 253.25,168.21 207.995,213.482 162.745,168.232 140.205,190.772 185.455,236.022 140.111,281.366 "/>
<path style="fill:#CDCCCC;" d="M138.792,327.3c3.24,3.741,5.208,8.694,5.208,14.032v41.675c1.378,0.63,2.874,0.991,4.418,0.991
	h47.078L138.792,327.3z"/>
<g>
</g>
<g>
</g>
<g>
</g>
<g>
</g>
<g>
</g>
<g>
</g>
<g>
</g>
<g>
</g>
<g>
</g>
<g>
</g>
<g>
</g>
<g>
</g>
<g>
</g>
<g>
</g>
<g>
</g>
</svg>
